<svg width="80" height="80" viewBox="0 0 80 80" fill="none" xmlns="http://www.w3.org/2000/svg">
<g clip-path="url(#clip0_2_25)">
<path d="M61.7206 37.3025C55.5485 34.3968 47.4159 35.7044 43.4585 38.7554C39.5012 35.7044 31.3686 34.3968 25.1965 37.3025C20.1136 39.6998 17.2817 44.5669 17.2817 50.9959C17.2817 62.074 27.5564 73.7333 41.6795 78.7094C42.2604 78.891 42.8413 79 43.4222 79C44.0031 79 44.6203 78.891 45.1649 78.7094C59.3244 73.7333 69.5627 62.1103 69.5627 50.9959C69.599 44.5669 66.8034 39.6998 61.7206 37.3025Z" fill="#AE0FEA"/>
<path d="M41.0261 14.5651C40.5541 10.497 39.0656 6.75586 36.8872 4.06805C34.5273 1.12598 31.5865 -0.290572 28.6094 0.0363243C22.6915 0.762761 18.8793 8.24506 19.9685 17.1076C20.4405 21.1756 21.9291 24.9168 24.1074 27.6046C26.2495 30.2561 28.8272 31.6726 31.5139 31.6726C31.8043 31.6726 32.1311 31.6726 32.4216 31.6363C35.3987 31.2731 37.9401 29.2028 39.5376 25.7522C40.9898 22.6285 41.5344 18.6694 41.0261 14.5651Z" fill="#AE0FEA"/>
<path d="M17.2092 22.9191C13.6512 16.7807 7.62434 13.8386 3.44913 16.2722C-0.726088 18.6694 -1.19807 25.3889 2.32364 31.5273C5.0466 36.2128 9.18551 39.0459 12.8524 39.0459C13.9779 39.0459 15.0671 38.7917 16.0837 38.2105C18.2258 36.9756 19.4602 34.6147 19.5328 31.5637C19.678 28.7669 18.843 25.7158 17.2092 22.9191Z" fill="#AE0FEA"/>
<path d="M58.3078 0.0362971C55.3307 -0.326921 52.3899 1.08963 49.9937 4.06802C47.8153 6.75584 46.3631 10.497 45.8548 14.565C45.3828 18.6331 45.8911 22.5922 47.3796 25.7522C48.9771 29.2027 51.5185 31.2731 54.4956 31.6363C54.7861 31.6726 55.1129 31.6726 55.4033 31.6726C58.09 31.6726 60.6677 30.2561 62.8098 27.6046C64.9881 24.9168 66.4404 21.1756 66.9487 17.1076C68.0016 8.24503 64.1894 0.762734 58.3078 0.0362971Z" fill="#AE0FEA"/>
<path d="M83.4317 16.2358C79.2565 13.8386 73.2297 16.7443 69.6716 22.8827C68.0742 25.6795 67.2391 28.7305 67.3117 31.4547C67.4207 34.5057 68.6551 36.8666 70.7608 38.1016C71.7411 38.6827 72.8303 38.937 73.9921 38.937C77.659 38.937 81.8342 36.1402 84.5209 31.4183C88.0789 25.3526 87.5706 18.6694 83.4317 16.2358Z" fill="#AE0FEA"/>
</g>
<defs>
<clipPath id="clip0_2_25">
<rect width="80" height="80" fill="transparent"/>
</clipPath>
</defs>
</svg>